<svg width="48" height="18" viewBox="0 0 48 18" fill="none" xmlns="http://www.w3.org/2000/svg">
<g clip-path="url(#clip0_2_537)">
<path d="M40.1839 0.018919C40.1448 0.023035 39.9966 0.0374413 39.8546 0.0477314C37.6341 0.239124 35.572 1.1611 34.1128 2.62022C33.479 3.25614 33.0015 3.91469 32.5879 4.72966C32.1001 5.69485 31.8058 6.7115 31.6721 7.89896C31.6021 8.53282 31.6124 9.60915 31.6968 10.2759C32.2216 14.4393 35.2303 17.3595 39.5562 17.9111C40.1181 17.9831 40.5194 17.9996 41.3364 17.9872C42.53 17.9687 43.4541 17.8637 44.5283 17.623C45.228 17.4666 46.0656 17.2134 46.3476 17.0714C47.0185 16.736 47.4939 16.0651 47.5927 15.3139C47.6091 15.1966 47.6133 14.254 47.6091 12.2825L47.603 9.42187L47.5474 9.22637C47.2902 8.31673 46.6686 7.72403 45.7405 7.50589C45.5985 7.47296 45.3865 7.46884 43.0713 7.46267L40.5544 7.45444V8.00598C40.5544 8.31056 40.5646 8.63778 40.577 8.73245C40.6984 9.71822 41.3487 10.4653 42.3201 10.7328C42.4642 10.774 42.5424 10.7781 43.1536 10.7863L43.8266 10.7925L43.8224 12.3586L43.8163 13.9248L43.6002 14.005C43.0013 14.2314 42.3242 14.3446 41.4763 14.3652C40.6943 14.3837 40.151 14.324 39.5459 14.1573C37.9386 13.7148 36.7841 12.5706 36.2861 10.9304C35.9671 9.87669 35.9321 8.56575 36.1935 7.50177C36.3211 6.98521 36.566 6.39663 36.8397 5.95416C37.5785 4.76258 38.7721 3.95585 40.1428 3.7233C40.4926 3.66362 40.8178 3.64304 41.2335 3.65539C42.0011 3.67802 42.6823 3.82826 43.3203 4.11638C43.6722 4.27484 43.7895 4.32012 43.9603 4.36539C44.7177 4.56708 45.5409 4.36745 46.0883 3.84678C46.1603 3.77681 46.5061 3.39402 46.858 2.99271L47.498 2.26624L47.3951 2.17569C47.0494 1.86493 46.6048 1.54595 46.2056 1.31545C44.979 0.607504 43.3779 0.146515 41.7377 0.0271511C41.4784 0.00862885 40.3609 0.00245476 40.1839 0.018919Z" fill="#212121"/>
<path d="M2.08228 0.492285C1.07592 0.677504 0.320638 1.45954 0.176579 2.46795C0.160115 2.58526 0.155999 4.40246 0.160115 9.12349L0.166289 15.6164L0.223913 15.8222C0.300058 16.1021 0.491452 16.4808 0.662265 16.6928C1.01624 17.1352 1.49575 17.4192 2.07199 17.5304C2.21811 17.5571 2.58031 17.5612 4.86674 17.5612C6.44522 17.5612 7.60799 17.553 7.78086 17.5407C9.72155 17.3987 11.2156 16.8389 12.1932 15.886C12.5739 15.5135 12.7982 15.211 13.0205 14.7644C13.3086 14.1882 13.4609 13.5338 13.4856 12.7764C13.5021 12.194 13.4424 11.7392 13.2839 11.2556C12.8476 9.92611 11.7116 8.96297 10.2052 8.64604C10.0838 8.62134 9.9932 8.59253 9.9932 8.57812C9.9932 8.56578 10.0735 8.52462 10.1743 8.48757C11.8516 7.85577 12.7921 6.54895 12.7921 4.84699C12.7921 3.99087 12.5739 3.19648 12.1664 2.5688C11.5058 1.55421 10.2834 0.868896 8.64522 0.593126C7.9064 0.469646 7.98254 0.471704 4.99228 0.467588C2.66469 0.463472 2.22016 0.467588 2.08228 0.492285ZM7.10995 3.80153C7.93315 3.93942 8.41884 4.22342 8.65345 4.70293C8.7584 4.91696 8.79956 5.12482 8.79956 5.42323C8.79751 6.25877 8.37356 6.82883 7.54625 7.10666C7.44541 7.14165 7.25813 7.18898 7.12848 7.21162C6.90827 7.25484 6.81978 7.2569 5.52324 7.26513L4.1485 7.27336V5.51172V3.75008L5.52324 3.75831C6.70659 3.76449 6.92473 3.77066 7.10995 3.80153ZM7.34868 10.3645C8.49087 10.527 9.08357 10.9222 9.2976 11.6672C9.33876 11.8092 9.34493 11.8771 9.34493 12.1899C9.34493 12.6118 9.31818 12.7517 9.18235 13.044C8.86954 13.7087 8.15541 14.0935 7.03175 14.2067C6.91033 14.2191 6.24766 14.2273 5.48414 14.2273H4.1485V12.2702V10.3151L5.63643 10.3233C6.84036 10.3295 7.16552 10.3377 7.34868 10.3645Z" fill="#212121"/>
<path d="M21.8987 0.492285C21.3986 0.582836 20.9129 0.84626 20.5918 1.19612C20.4395 1.36076 20.2626 1.62006 20.1905 1.7847C20.1617 1.8485 19.248 4.20901 18.1613 7.03052C17.0727 9.85202 15.7206 13.3588 15.1546 14.8241C14.5887 16.2894 14.1215 17.5057 14.1153 17.5242C14.105 17.5592 14.1874 17.5612 15.6588 17.5612C16.9759 17.5612 17.2373 17.5571 17.3793 17.5304C18.1305 17.3863 18.7293 16.9377 19.0525 16.275C19.1245 16.1268 19.3303 15.5177 19.7995 14.073C22.8659 4.61444 22.5922 5.43969 22.6519 5.43969C22.7074 5.43969 22.5901 5.08778 25.5125 14.0421C25.8747 15.1575 26.2081 16.1454 26.2513 16.238C26.4036 16.5652 26.6629 16.8821 26.9613 17.1064C27.1548 17.2526 27.5129 17.4254 27.7639 17.4933L27.9697 17.551L29.6326 17.5571C30.5463 17.5592 31.2934 17.5571 31.2934 17.551C31.2934 17.5448 30.8015 16.2421 30.2006 14.6533C29.5997 13.0666 28.2702 9.55361 27.2474 6.84941C26.2225 4.14316 25.3458 1.84644 25.2964 1.7456C25.0124 1.1529 24.4629 0.710432 23.7817 0.525213C23.5903 0.473763 23.5697 0.471704 22.8247 0.467588C22.2238 0.463472 22.0283 0.467588 21.8987 0.492285Z" fill="#212121"/>
</g>
<defs>
<clipPath id="clip0_2_537">
<rect width="47.7692" height="18" fill="white"/>
</clipPath>
</defs>
</svg>
